<mxfile host="Electron" agent="Mozilla/5.0 (X11; Linux x86_64) AppleWebKit/537.36 (KHTML, like Gecko) draw.io/21.7.5 Chrome/114.0.5735.289 Electron/25.8.1 Safari/537.36" modified="2025-01-31T15:47:48.033Z" version="21.7.5" etag="fWPcUp9rrYHOdeTBwRtU" type="device">
  <diagram name="Page-1" id="C6OtkXuN3iUMxypfyKTs">
    <mxGraphModel dx="1395" dy="732" grid="1" gridSize="10" guides="1" tooltips="1" connect="1" arrows="1" fold="1" page="1" pageScale="1" pageWidth="827" pageHeight="1169" math="0" shadow="0">
      <root>
        <mxCell id="0" />
        <mxCell id="1" parent="0" />
        <mxCell id="W3fZUSGUrZe4VD1POTaC-2" value="&lt;b&gt;uc&lt;/b&gt;&amp;nbsp;[Paquet] Diagramme de cas d&#39;utilisation" style="shape=umlFrame;whiteSpace=wrap;html=1;pointerEvents=0;recursiveResize=0;container=1;collapsible=0;width=260;height=30;" parent="1" vertex="1">
          <mxGeometry x="30" y="31" width="960" height="709" as="geometry" />
        </mxCell>
        <mxCell id="W3fZUSGUrZe4VD1POTaC-45" value="" style="rounded=0;whiteSpace=wrap;html=1;movable=1;resizable=1;rotatable=1;deletable=1;editable=1;locked=0;connectable=1;" parent="W3fZUSGUrZe4VD1POTaC-2" vertex="1">
          <mxGeometry x="100" y="119" width="670" height="561" as="geometry" />
        </mxCell>
        <mxCell id="W3fZUSGUrZe4VD1POTaC-10" value="Système" style="shape=umlActor;verticalLabelPosition=bottom;verticalAlign=top;html=1;spacingTop=-9;" parent="W3fZUSGUrZe4VD1POTaC-2" vertex="1">
          <mxGeometry x="395" y="10" width="30" height="60" as="geometry" />
        </mxCell>
        <mxCell id="W3fZUSGUrZe4VD1POTaC-30" value="&amp;lt;&amp;lt;extend&amp;gt;&amp;gt;" style="html=1;verticalAlign=bottom;labelBackgroundColor=none;endArrow=open;endFill=0;dashed=1;rounded=0;exitX=0.5;exitY=1;exitDx=0;exitDy=0;entryX=0.5;entryY=0;entryDx=0;entryDy=0;" parent="W3fZUSGUrZe4VD1POTaC-2" edge="1">
          <mxGeometry width="160" relative="1" as="geometry">
            <mxPoint x="1389.6" y="619" as="sourcePoint" />
            <mxPoint x="1389.5999999999997" y="719" as="targetPoint" />
          </mxGeometry>
        </mxCell>
        <mxCell id="W3fZUSGUrZe4VD1POTaC-39" value="&amp;lt;&amp;lt;include&amp;gt;&amp;gt;" style="html=1;verticalAlign=bottom;labelBackgroundColor=none;endArrow=open;endFill=0;dashed=1;rounded=0;exitX=0;exitY=1;exitDx=0;exitDy=0;entryX=1;entryY=0;entryDx=0;entryDy=0;" parent="W3fZUSGUrZe4VD1POTaC-2" edge="1">
          <mxGeometry width="160" relative="1" as="geometry">
            <mxPoint x="1360.0025253169415" y="619.3587373415293" as="sourcePoint" />
            <mxPoint x="1259.282755579517" y="740.0047300009281" as="targetPoint" />
          </mxGeometry>
        </mxCell>
        <mxCell id="W3fZUSGUrZe4VD1POTaC-54" value="" style="endArrow=none;html=1;rounded=0;exitX=0.5;exitY=0.5;exitDx=0;exitDy=0;exitPerimeter=0;entryX=0.5;entryY=0;entryDx=0;entryDy=0;" parent="W3fZUSGUrZe4VD1POTaC-2" target="6IBBZLBLftk1ZRZKgWQt-5" edge="1">
          <mxGeometry width="50" height="50" relative="1" as="geometry">
            <mxPoint x="420" y="86" as="sourcePoint" />
            <mxPoint x="610" y="218.9999999999999" as="targetPoint" />
          </mxGeometry>
        </mxCell>
        <mxCell id="W3fZUSGUrZe4VD1POTaC-55" value="" style="endArrow=none;html=1;rounded=0;exitX=0.5;exitY=0.5;exitDx=0;exitDy=0;exitPerimeter=0;entryX=0.5;entryY=0;entryDx=0;entryDy=0;" parent="W3fZUSGUrZe4VD1POTaC-2" target="6IBBZLBLftk1ZRZKgWQt-4" edge="1">
          <mxGeometry width="50" height="50" relative="1" as="geometry">
            <mxPoint x="410" y="86" as="sourcePoint" />
            <mxPoint x="399" y="259.9999999999998" as="targetPoint" />
          </mxGeometry>
        </mxCell>
        <mxCell id="W3fZUSGUrZe4VD1POTaC-59" value="" style="endArrow=none;html=1;rounded=0;entryX=0;entryY=0.5;entryDx=0;entryDy=0;exitX=1;exitY=0.5;exitDx=0;exitDy=0;" parent="W3fZUSGUrZe4VD1POTaC-2" source="6IBBZLBLftk1ZRZKgWQt-5" edge="1" target="wWKtMS9C8MAKDo4gfc2h-1">
          <mxGeometry width="50" height="50" relative="1" as="geometry">
            <mxPoint x="1260" y="670" as="sourcePoint" />
            <mxPoint x="1401" y="513" as="targetPoint" />
          </mxGeometry>
        </mxCell>
        <mxCell id="wWKtMS9C8MAKDo4gfc2h-1" value="" style="ellipse;whiteSpace=wrap;html=1;" parent="W3fZUSGUrZe4VD1POTaC-2" vertex="1">
          <mxGeometry x="830" y="250" width="120" height="80" as="geometry" />
        </mxCell>
        <mxCell id="wWKtMS9C8MAKDo4gfc2h-2" value="" style="ellipse;whiteSpace=wrap;html=1;" parent="W3fZUSGUrZe4VD1POTaC-2" vertex="1">
          <mxGeometry x="830" y="229" width="120" height="80" as="geometry" />
        </mxCell>
        <mxCell id="wWKtMS9C8MAKDo4gfc2h-3" value="" style="ellipse;whiteSpace=wrap;html=1;" parent="W3fZUSGUrZe4VD1POTaC-2" vertex="1">
          <mxGeometry x="830" y="209" width="120" height="80" as="geometry" />
        </mxCell>
        <mxCell id="wWKtMS9C8MAKDo4gfc2h-4" value="Base de données" style="text;html=1;strokeColor=none;fillColor=none;align=center;verticalAlign=middle;whiteSpace=wrap;rounded=0;" parent="W3fZUSGUrZe4VD1POTaC-2" vertex="1">
          <mxGeometry x="860" y="334" width="60" height="30" as="geometry" />
        </mxCell>
        <mxCell id="6IBBZLBLftk1ZRZKgWQt-4" value="Permettre de visualiser les paramètres&amp;nbsp;" style="ellipse;whiteSpace=wrap;html=1;" vertex="1" parent="W3fZUSGUrZe4VD1POTaC-2">
          <mxGeometry x="340" y="229" width="140" height="70" as="geometry" />
        </mxCell>
        <mxCell id="6IBBZLBLftk1ZRZKgWQt-5" value="Stocker paramètres" style="ellipse;whiteSpace=wrap;html=1;" vertex="1" parent="W3fZUSGUrZe4VD1POTaC-2">
          <mxGeometry x="530" y="234" width="140" height="70" as="geometry" />
        </mxCell>
        <mxCell id="6IBBZLBLftk1ZRZKgWQt-7" value="Mesure de paramètre" style="ellipse;whiteSpace=wrap;html=1;" vertex="1" parent="W3fZUSGUrZe4VD1POTaC-2">
          <mxGeometry x="140" y="189" width="140" height="70" as="geometry" />
        </mxCell>
        <mxCell id="6IBBZLBLftk1ZRZKgWQt-8" value="Régulation de température avant sortie des fumés" style="ellipse;whiteSpace=wrap;html=1;" vertex="1" parent="W3fZUSGUrZe4VD1POTaC-2">
          <mxGeometry x="140" y="319" width="140" height="70" as="geometry" />
        </mxCell>
        <mxCell id="6IBBZLBLftk1ZRZKgWQt-9" value="&amp;lt;&amp;lt;include&amp;gt;&amp;gt;" style="html=1;verticalAlign=bottom;labelBackgroundColor=none;endArrow=open;endFill=0;dashed=1;rounded=0;exitX=0.5;exitY=1;exitDx=0;exitDy=0;entryX=0.5;entryY=0;entryDx=0;entryDy=0;" edge="1" parent="W3fZUSGUrZe4VD1POTaC-2" source="6IBBZLBLftk1ZRZKgWQt-7" target="6IBBZLBLftk1ZRZKgWQt-8">
          <mxGeometry width="160" relative="1" as="geometry">
            <mxPoint x="209.70999999999998" y="262.5" as="sourcePoint" />
            <mxPoint x="209.70999999999998" y="357.5" as="targetPoint" />
          </mxGeometry>
        </mxCell>
        <mxCell id="6IBBZLBLftk1ZRZKgWQt-10" value="Détecter dépassement des seuils" style="ellipse;whiteSpace=wrap;html=1;" vertex="1" parent="W3fZUSGUrZe4VD1POTaC-2">
          <mxGeometry x="150" y="429" width="140" height="70" as="geometry" />
        </mxCell>
        <mxCell id="6IBBZLBLftk1ZRZKgWQt-11" value="Envoyer alerte au responsable" style="ellipse;whiteSpace=wrap;html=1;" vertex="1" parent="W3fZUSGUrZe4VD1POTaC-2">
          <mxGeometry x="170" y="579" width="140" height="70" as="geometry" />
        </mxCell>
        <mxCell id="6IBBZLBLftk1ZRZKgWQt-12" value="&amp;lt;&amp;lt;include&amp;gt;&amp;gt;" style="html=1;verticalAlign=bottom;labelBackgroundColor=none;endArrow=open;endFill=0;dashed=1;rounded=0;exitX=0.5;exitY=1;exitDx=0;exitDy=0;entryX=0.5;entryY=0;entryDx=0;entryDy=0;" edge="1" parent="W3fZUSGUrZe4VD1POTaC-2" source="6IBBZLBLftk1ZRZKgWQt-8" target="6IBBZLBLftk1ZRZKgWQt-10">
          <mxGeometry width="160" relative="1" as="geometry">
            <mxPoint x="350" y="419" as="sourcePoint" />
            <mxPoint x="349.9999999999998" y="519" as="targetPoint" />
          </mxGeometry>
        </mxCell>
        <mxCell id="6IBBZLBLftk1ZRZKgWQt-13" value="&amp;lt;&amp;lt;extend&amp;gt;&amp;gt;" style="html=1;verticalAlign=bottom;labelBackgroundColor=none;endArrow=open;endFill=0;dashed=1;rounded=0;exitX=0.5;exitY=0;exitDx=0;exitDy=0;entryX=0.5;entryY=1;entryDx=0;entryDy=0;" edge="1" parent="W3fZUSGUrZe4VD1POTaC-2" source="6IBBZLBLftk1ZRZKgWQt-11" target="6IBBZLBLftk1ZRZKgWQt-10">
          <mxGeometry width="160" relative="1" as="geometry">
            <mxPoint x="384" y="499" as="sourcePoint" />
            <mxPoint x="383.99999999999955" y="599" as="targetPoint" />
          </mxGeometry>
        </mxCell>
        <mxCell id="6IBBZLBLftk1ZRZKgWQt-2" value="&lt;font style=&quot;font-size: 15px;&quot;&gt;Système de traitement des fumées d&#39;une aciérie&lt;/font&gt;" style="text;html=1;strokeColor=none;fillColor=none;align=center;verticalAlign=middle;whiteSpace=wrap;rounded=0;" vertex="1" parent="W3fZUSGUrZe4VD1POTaC-2">
          <mxGeometry x="170" y="130" width="350" height="30" as="geometry" />
        </mxCell>
        <mxCell id="6IBBZLBLftk1ZRZKgWQt-14" value="" style="endArrow=none;html=1;rounded=0;exitX=0.5;exitY=0;exitDx=0;exitDy=0;" edge="1" parent="W3fZUSGUrZe4VD1POTaC-2" source="6IBBZLBLftk1ZRZKgWQt-7">
          <mxGeometry width="50" height="50" relative="1" as="geometry">
            <mxPoint x="250" y="186" as="sourcePoint" />
            <mxPoint x="400" y="86" as="targetPoint" />
          </mxGeometry>
        </mxCell>
      </root>
    </mxGraphModel>
  </diagram>
</mxfile>
